<svg width="169" height="34" viewBox="0 0 169 34" fill="none" xmlns="http://www.w3.org/2000/svg">
<path d="M97.507 22.5264C96.8796 24.3485 95.9891 25.8903 94.876 27.1518C93.7427 28.4133 92.407 29.3944 90.8689 30.0552C89.3106 30.736 87.6308 31.0764 85.7891 31.0764H85.2629C84.1296 31.0764 81.6605 30.7961 81.2963 30.716V3.14355C81.6403 3.1035 84.7367 2.78312 85.2629 2.78312H85.6879C87.5903 2.78312 89.3308 3.12352 90.8891 3.80432C92.4475 4.50515 93.8034 5.4863 94.9367 6.76781C96.0701 8.04932 96.9403 9.59113 97.5475 11.3933C98.1546 13.1954 98.4784 14.1765 98.4784 16.3991C98.4784 18.6218 98.1546 20.7042 97.5272 22.5264M105.036 10.352C104.125 8.30962 102.749 6.5876 100.907 5.16592C99.0856 3.74425 96.7986 2.66298 94.0867 1.90208C91.3748 1.14119 88.1975 0.760742 84.5748 0.760742H74.4355V33.0988H85.951C89.2701 33.0988 92.1844 32.6783 94.7344 31.8573C97.2844 31.0364 99.4296 29.875 101.15 28.3933C102.87 26.9115 104.186 25.1294 105.056 23.047C105.926 20.9645 106.371 18.6818 106.371 16.1989C106.371 13.716 105.906 12.3944 104.995 10.352" fill="#491E5D"/>
<path d="M64.5799 22.9869L46.4061 3.80432C45.5966 2.78312 44.5645 2.02223 43.3097 1.52164C42.3585 1.14119 41.124 0.900907 39.7478 0.800789C39.7478 1.86204 39.7478 6.18713 39.7478 6.82788V33.0988H42.3788V9.11057L64.7823 33.239H67.2109V0.760742H64.5799V22.9869Z" fill="#491E5D"/>
<path d="M25.6821 26.511C25.6821 27.7925 25.7428 28.8538 25.8845 29.6948C26.0262 30.5358 26.2893 31.2166 26.6536 31.7172C27.0178 32.2178 27.5238 32.5782 28.1309 32.7784C28.7381 32.9786 29.5071 33.0788 30.4381 33.0788H32.5428C32.5428 33.0788 32.5428 28.0128 32.5428 26.511V0.760742H25.6821V26.511Z" fill="#491E5D"/>
<path d="M0 0.760742V33.0988H6.86071V17.16H18.4774V14.8773H6.86071V3.04343H20.9262L20.9464 0.760742H0Z" fill="#491E5D"/>
<path d="M131.73 17.0001L114.568 4.20508V29.7952L131.73 17.0001Z" fill="#81969F"/>
<path d="M128.309 2.02246V11.2133L133.308 14.9377L136.081 17.0001L133.308 19.0625L128.309 22.7869V31.9777L148.386 17.0001L128.309 2.02246Z" fill="#489FA9"/>
<path d="M145.248 0V11.4134L149.964 14.9376L152.736 17L149.964 19.0624L145.248 22.5866V34L168.057 17L145.248 0Z" fill="#491E5D"/>
</svg>
